# xmcd
#
# Track frame offsets:
#  150
#  22740
#  56255
#  89067
#  109452
#  126897
#  151272
#  179761
#  208762
#  233224
#  251042
#  273645
#
# Disc length: 4074 seconds
#
# Revision: 0
# Processed by: cddbd v1.5.1PL2 Copyright (c) Steve Scherf et al.
# Submitted via: Collectorz.com_Music_Collector 6.11
#
DISCID=ad0fe80c
DTITLE=Black Gold Massive - Stories
DYEAR=2005
DGENRE=R&B
TTITLE0=Don't Give Up Now
TTITLE1=Set Me Free - Black Gold Massive,
TTITLE2=Cast No Shadow
TTITLE3=Call Me Anytime
TTITLE4=When Did You Go
TTITLE5=Just Make a Move (And Be Yourself)
TTITLE6=Sometimes It Snows in April
TTITLE7=Introduce Me to Love
TTITLE8=Let It Flow (Sausalito Calling)
TTITLE9=I Do
TTITLE10=Don't Give Up Now [Piano Version]
TTITLE11=Set Me Free [D>Tour vs Chris 'Black Gold' 84 R>Work]
EXTD=
EXTT0=
EXTT1=
EXTT2=
EXTT3=
EXTT4=
EXTT5=
EXTT6=
EXTT7=
EXTT8=
EXTT9=
EXTT10=
EXTT11=
PLAYORDER=
